<?xml version="1.0" encoding="utf-8"?>
<!-- Generator: Adobe Illustrator 16.0.0, SVG Export Plug-In . SVG Version: 6.00 Build 0)  -->
<!DOCTYPE svg PUBLIC "-//W3C//DTD SVG 1.1//EN" "http://www.w3.org/Graphics/SVG/1.1/DTD/svg11.dtd">
<svg version="1.1" id="Layer_1" xmlns="http://www.w3.org/2000/svg" xmlns:xlink="http://www.w3.org/1999/xlink" x="0px" y="0px"
	 width="300px" height="300px" viewBox="0 0 300 300" enable-background="new 0 0 300 300" xml:space="preserve">
<polygon stroke="#FFFFFF" stroke-width="5" stroke-miterlimit="10" points="97.465,224.479 64.364,122.609 151.02,59.651 
	237.676,122.609 204.575,224.479 "/>
<polygon stroke="#FFFFFF" stroke-width="5" stroke-miterlimit="10" points="153.469,57.673 153.469,10.91 234.18,37.008 
	285.668,106.737 240.124,120.632 "/>
<polygon stroke="#FFFFFF" stroke-width="5" stroke-miterlimit="10" points="240.131,123.472 284.604,109.023 284.725,193.852 
	234.318,264.363 207.027,225.346 "/>
<polygon stroke="#FFFFFF" stroke-width="5" stroke-miterlimit="10" points="204.262,226.986 231.75,264.814 151.109,291.143 
	68.472,264.999 97.148,226.979 "/>
<polygon stroke="#FFFFFF" stroke-width="5" stroke-miterlimit="10" points="95.478,225.939 67.998,263.77 18.037,195.213 
	17.369,108.541 62.383,124.065 "/>
<polygon stroke="#FFFFFF" stroke-width="5" stroke-miterlimit="10" points="61.823,120.371 17.354,105.927 67.117,37.227 
	149.34,9.807 148.484,57.417 "/>
<text transform="matrix(1 0 0 1 94.5 176.5)" fill="#FFFFFF" font-family="'Copperplate'" font-size="90">12</text>
</svg>
