<?xml version="1.0" encoding="utf-8"?>
<!-- Generator: Adobe Illustrator 16.0.0, SVG Export Plug-In . SVG Version: 6.00 Build 0)  -->
<!DOCTYPE svg PUBLIC "-//W3C//DTD SVG 1.1//EN" "http://www.w3.org/Graphics/SVG/1.1/DTD/svg11.dtd">
<svg version="1.1" id="Layer_1" xmlns="http://www.w3.org/2000/svg" xmlns:xlink="http://www.w3.org/1999/xlink" x="0px" y="0px"
	 width="300px" height="300px" viewBox="0 0 300 300" enable-background="new 0 0 300 300" xml:space="preserve">
<polygon stroke="#FFFFFF" stroke-width="5" stroke-miterlimit="10" points="67.02,195.016 152.48,46.994 237.939,195.016 "/>
<polygon stroke="#FFFFFF" stroke-width="5" stroke-miterlimit="10" points="156.126,44.994 280.529,71.852 241.587,193.016 "/>
<polyline stroke="#FFFFFF" stroke-width="5" stroke-miterlimit="10" points="63.376,193.016 24.432,71.852 148.835,44.994 "/>
<polygon stroke="#FFFFFF" stroke-width="5" stroke-miterlimit="10" points="237.943,198.66 152.48,292.967 67.02,198.66 "/>
<polygon stroke="#FFFFFF" stroke-width="5" stroke-miterlimit="10" points="154.125,41.349 155.126,3.493 279.529,68.946 "/>
<polygon stroke="#FFFFFF" stroke-width="5" stroke-miterlimit="10" points="150.463,42.048 150.275,3.192 26.191,69.246 "/>
<polygon stroke="#FFFFFF" stroke-width="5" stroke-miterlimit="10" points="240.473,199.615 274.087,219.098 155.086,293.919 "/>
<polygon stroke="#FFFFFF" stroke-width="5" stroke-miterlimit="10" points="243.377,195.648 276.919,215.264 283.215,74.831 "/>
<polygon stroke="#FFFFFF" stroke-width="5" stroke-miterlimit="10" points="63.589,198.689 30.013,218.242 149.181,292.809 "/>
<polygon stroke="#FFFFFF" stroke-width="5" stroke-miterlimit="10" points="61.34,195.748 27.743,215.27 21.827,74.823 "/>
<text transform="matrix(1 0 0 1 98.5 184.5)" fill="#FFFFFF" font-family="'Copperplate'" font-size="90">20</text>
</svg>
