
<svg width="97px" height="87px" viewBox="-6 -4 97 87" version="1.1" xmlns="http://www.w3.org/2000/svg" xmlns:xlink="http://www.w3.org/1999/xlink">
    <!-- Generator: Sketch 42 (36781) - http://www.bohemiancoding.com/sketch -->
    <desc>Created with Sketch.</desc>
    <defs>
        <path d="M47,52.5289165 C47.018335,50.6453249 48.4145456,48.8506703 49.9244332,48.335772 C51.9412838,47.6486168 53.2971574,47.9837688 54.4907662,49.6417413 C56.2335084,52.0626995 57.904744,54.5398283 59.6062325,56.9935528 C61.802766,60.158773 63.9855483,63.3333551 66.2059174,66.4817241 C67.1171671,67.7736507 67.2858492,69.0880457 66.493777,70.4651646 C65.6879535,71.8675603 65.0343106,73.3542121 63.3025694,73.9739624 C58.1403488,75.821043 57.1319236,75.4774654 54.777709,70.4164833 C52.2951494,65.0755837 49.907015,59.6888113 47.5051294,54.307656 C47.2035186,53.6242456 47.0889248,52.8556428 47,52.5289165 Z" id="path-1"></path>
        <filter x="-50%" y="-50%" width="200%" height="200%" filterUnits="objectBoundingBox" id="filter-2">
            <feMorphology radius="1.39500001" operator="dilate" in="SourceAlpha" result="shadowSpreadOuter1"></feMorphology>
            <feOffset dx="0" dy="2" in="shadowSpreadOuter1" result="shadowOffsetOuter1"></feOffset>
            <feGaussianBlur stdDeviation="2" in="shadowOffsetOuter1" result="shadowBlurOuter1"></feGaussianBlur>
            <feComposite in="shadowBlurOuter1" in2="SourceAlpha" operator="out" result="shadowBlurOuter1"></feComposite>
            <feColorMatrix values="0 0 0 0 0   0 0 0 0 0   0 0 0 0 0  0 0 0 0.5 0" type="matrix" in="shadowBlurOuter1"></feColorMatrix>
        </filter>
        <path d="M60.0561325,0.0414711327 C62.6877281,-0.267374082 64.6251048,1.18139074 66.1928443,3.30119199 C67.3045142,4.80236691 67.2806073,6.68538682 66.0420471,8.51974022 C62.6619823,13.5286481 59.2423791,18.510415 55.8071446,23.4800152 C55.1699343,24.4018714 54.4849103,25.3415096 53.6435721,26.056533 C52.0316968,27.4266827 50.6276274,27.2797473 48.6893313,25.7767006 C47.2466431,24.6573706 46.5698945,22.6695305 47.2907789,21.0906763 C50.1356974,14.8389005 53.0615315,8.62549631 55.9073696,2.37372045 C56.7229619,0.5833541 58.0084164,-0.18127178 60.0561325,0.0414711327 Z" id="path-3"></path>
        <filter x="-50%" y="-50%" width="200%" height="200%" filterUnits="objectBoundingBox" id="filter-4">
            <feMorphology radius="1.39500001" operator="dilate" in="SourceAlpha" result="shadowSpreadOuter1"></feMorphology>
            <feOffset dx="0" dy="2" in="shadowSpreadOuter1" result="shadowOffsetOuter1"></feOffset>
            <feGaussianBlur stdDeviation="2" in="shadowOffsetOuter1" result="shadowBlurOuter1"></feGaussianBlur>
            <feComposite in="shadowBlurOuter1" in2="SourceAlpha" operator="out" result="shadowBlurOuter1"></feComposite>
            <feColorMatrix values="0 0 0 0 0   0 0 0 0 0   0 0 0 0 0  0 0 0 0.5 0" type="matrix" in="shadowBlurOuter1"></feColorMatrix>
        </filter>
        <path d="M7.58273475,32.080617 C12.4545761,32.5238599 18.7785018,33.0835007 25.0986777,33.68132 C28.2522037,33.9792984 29.0687082,34.9393477 28.9955883,38.096057 C28.9355926,40.701506 27.6513089,41.9166994 24.8849429,42.1606693 C18.2929113,42.7398649 11.703692,43.3525831 5.11728492,43.9857873 C3.13180099,44.1748174 0.674788063,42.4558542 0.228569767,40.166076 C-0.0460982179,38.7562655 -0.0957821878,37.2002592 0.204196498,35.80721 C0.912896145,32.5275846 2.33029544,31.7155934 7.58273475,32.080617 Z" id="path-5"></path>
        <filter x="-50%" y="-50%" width="200%" height="200%" filterUnits="objectBoundingBox" id="filter-6">
            <feMorphology radius="1.39500001" operator="dilate" in="SourceAlpha" result="shadowSpreadOuter1"></feMorphology>
            <feOffset dx="0" dy="2" in="shadowSpreadOuter1" result="shadowOffsetOuter1"></feOffset>
            <feGaussianBlur stdDeviation="2" in="shadowOffsetOuter1" result="shadowBlurOuter1"></feGaussianBlur>
            <feComposite in="shadowBlurOuter1" in2="SourceAlpha" operator="out" result="shadowBlurOuter1"></feComposite>
            <feColorMatrix values="0 0 0 0 0   0 0 0 0 0   0 0 0 0 0  0 0 0 0.5 0" type="matrix" in="shadowBlurOuter1"></feColorMatrix>
        </filter>
        <path d="M25.1170882,0.0678795813 C28.2702289,-0.483947889 29.0827229,2.44289255 30.1755781,4.71016331 C32.7117398,9.97360428 35.0136524,15.3532194 37.4658903,20.6588204 C38.1474261,22.1325464 38.2783843,23.4694866 37.2537749,24.8111113 C36.0271949,26.4160017 34.3053716,27.4465794 32.4793352,26.8085581 C31.2066431,26.363536 30.1257771,24.9535184 29.2690155,23.7468057 C25.6787328,18.691354 22.1852852,13.5628251 18.7001379,8.43242229 C17.4366682,6.57269813 17.9512785,3.75453679 19.69708,2.35107745 C22.1742184,0.36018887 22.8114866,0.0716271363 25.1170882,0.0678795813 Z" id="path-7"></path>
        <filter x="-50%" y="-50%" width="200%" height="200%" filterUnits="objectBoundingBox" id="filter-8">
            <feMorphology radius="1.39500001" operator="dilate" in="SourceAlpha" result="shadowSpreadOuter1"></feMorphology>
            <feOffset dx="0" dy="2" in="shadowSpreadOuter1" result="shadowOffsetOuter1"></feOffset>
            <feGaussianBlur stdDeviation="2" in="shadowOffsetOuter1" result="shadowBlurOuter1"></feGaussianBlur>
            <feComposite in="shadowBlurOuter1" in2="SourceAlpha" operator="out" result="shadowBlurOuter1"></feComposite>
            <feColorMatrix values="0 0 0 0 0   0 0 0 0 0   0 0 0 0 0  0 0 0 0.5 0" type="matrix" in="shadowBlurOuter1"></feColorMatrix>
        </filter>
        <path d="M56.0000543,38.0271537 C55.9925368,34.9689687 56.763082,34.0873214 59.7334395,33.8161891 C66.6269995,33.1851054 73.5168008,32.517559 80.4197577,32.0052126 C81.3171609,31.9397668 82.447607,32.5007301 83.1730471,33.1177898 C85.0336317,34.705316 85.6068421,39.8540243 84.2659056,41.8706874 C83.251981,43.4011823 81.861241,44.1463285 79.9283003,43.9761697 C73.1418648,43.3787437 66.3488515,42.8654623 59.556778,42.3054339 C57.2056756,42.1109667 56.0056925,40.6403078 56.0000543,38.0271537 Z" id="path-9"></path>
        <filter x="-50%" y="-50%" width="200%" height="200%" filterUnits="objectBoundingBox" id="filter-10">
            <feMorphology radius="1.39500001" operator="dilate" in="SourceAlpha" result="shadowSpreadOuter1"></feMorphology>
            <feOffset dx="0" dy="2" in="shadowSpreadOuter1" result="shadowOffsetOuter1"></feOffset>
            <feGaussianBlur stdDeviation="2" in="shadowOffsetOuter1" result="shadowBlurOuter1"></feGaussianBlur>
            <feComposite in="shadowBlurOuter1" in2="SourceAlpha" operator="out" result="shadowBlurOuter1"></feComposite>
            <feColorMatrix values="0 0 0 0 0   0 0 0 0 0   0 0 0 0 0  0 0 0 0.5 0" type="matrix" in="shadowBlurOuter1"></feColorMatrix>
        </filter>
        <path d="M25.2891397,73.999914 C21.88435,73.9304585 19.2768379,72.3055661 18.2924537,69.7110388 C17.7928879,68.3941265 17.9302224,67.193278 18.7284216,66.0545739 C22.6032823,60.5346919 26.4652392,55.0047571 30.3677511,49.5031529 C31.5668933,47.8115467 33.749498,47.5410359 35.7145797,48.7254344 C37.8842805,50.0332078 38.5110419,51.691914 37.5865688,53.7015532 C34.8601563,59.629943 32.1162313,65.5537634 29.4128616,71.4940338 C28.5953065,73.2907371 27.1850932,74.0090529 25.2891397,73.999914 Z" id="path-11"></path>
        <filter x="-50%" y="-50%" width="200%" height="200%" filterUnits="objectBoundingBox" id="filter-12">
            <feMorphology radius="1.39500001" operator="dilate" in="SourceAlpha" result="shadowSpreadOuter1"></feMorphology>
            <feOffset dx="0" dy="2" in="shadowSpreadOuter1" result="shadowOffsetOuter1"></feOffset>
            <feGaussianBlur stdDeviation="2" in="shadowOffsetOuter1" result="shadowBlurOuter1"></feGaussianBlur>
            <feComposite in="shadowBlurOuter1" in2="SourceAlpha" operator="out" result="shadowBlurOuter1"></feComposite>
            <feColorMatrix values="0 0 0 0 0   0 0 0 0 0   0 0 0 0 0  0 0 0 0.5 0" type="matrix" in="shadowBlurOuter1"></feColorMatrix>
        </filter>
    </defs>
    <g id="Group" stroke="none" stroke-width="1" fill="none" fill-rule="evenodd">
        <g id="Shape" fill-rule="nonzero">
            <use fill="black" fill-opacity="1" filter="url(#filter-2)" xlink:href="#path-1"></use>
            <use stroke="#FFFFFF" stroke-width="2.79000002" fill="#000000" fill-rule="evenodd" xlink:href="#path-1"></use>
        </g>
        <g id="Shape" fill-rule="nonzero">
            <use fill="black" fill-opacity="1" filter="url(#filter-4)" xlink:href="#path-3"></use>
            <use stroke="#FFFFFF" stroke-width="2.79000002" fill="#000000" fill-rule="evenodd" xlink:href="#path-3"></use>
        </g>
        <g id="Shape" fill-rule="nonzero">
            <use fill="black" fill-opacity="1" filter="url(#filter-6)" xlink:href="#path-5"></use>
            <use stroke="#FFFFFF" stroke-width="2.79000002" fill="#000000" fill-rule="evenodd" xlink:href="#path-5"></use>
        </g>
        <g id="Shape" fill-rule="nonzero">
            <use fill="black" fill-opacity="1" filter="url(#filter-8)" xlink:href="#path-7"></use>
            <use stroke="#FFFFFF" stroke-width="2.79000002" fill="#000000" fill-rule="evenodd" xlink:href="#path-7"></use>
        </g>
        <g id="Shape" fill-rule="nonzero">
            <use fill="black" fill-opacity="1" filter="url(#filter-10)" xlink:href="#path-9"></use>
            <use stroke="#FFFFFF" stroke-width="2.79000002" fill="#000000" fill-rule="evenodd" xlink:href="#path-9"></use>
        </g>
        <g id="Shape" fill-rule="nonzero">
            <use fill="black" fill-opacity="1" filter="url(#filter-12)" xlink:href="#path-11"></use>
            <use stroke="#FFFFFF" stroke-width="2.79000002" fill="#000000" fill-rule="evenodd" xlink:href="#path-11"></use>
        </g>
    </g>
</svg>
