<?xml version="1.0" encoding="utf-8"?>
<!-- Generator: Adobe Illustrator 16.0.3, SVG Export Plug-In . SVG Version: 6.00 Build 0)  -->
<!DOCTYPE svg PUBLIC "-//W3C//DTD SVG 1.1//EN" "http://www.w3.org/Graphics/SVG/1.1/DTD/svg11.dtd">
<svg version="1.1" id="Layer_1" xmlns="http://www.w3.org/2000/svg" xmlns:xlink="http://www.w3.org/1999/xlink" x="0px" y="0px"
	 width="100px" height="100px" viewBox="0 0 100 100" enable-background="new 0 0 100 100" xml:space="preserve">
<g>
	<g>
		<path stroke="#FFFFFF" stroke-width="3" stroke-miterlimit="10" d="M55.137,65.064c0.02-2.012,1.543-3.929,3.19-4.479c2.2-0.734,3.679-0.376,4.981,1.395c1.901,2.586,3.724,5.232,5.58,7.853
			c2.396,3.381,4.777,6.772,7.199,10.135c0.994,1.38,1.178,2.784,0.314,4.255c-0.879,1.498-1.592,3.086-3.481,3.748
			c-5.631,1.973-6.731,1.606-9.299-3.8c-2.708-5.705-5.313-11.459-7.933-17.207C55.359,66.234,55.234,65.413,55.137,65.064z"/>
		<path stroke="#FFFFFF" stroke-width="3" stroke-miterlimit="10" d="M69.271,8.213c2.862-0.33,4.969,1.218,6.674,3.483c1.209,1.604,1.183,3.616-0.164,5.576
			c-3.676,5.352-7.395,10.675-11.131,15.985c-0.693,0.985-1.438,1.989-2.353,2.753c-1.753,1.464-3.28,1.307-5.388-0.299
			c-1.569-1.196-2.305-3.32-1.521-5.007c3.094-6.68,6.276-13.319,9.371-19.999C65.646,8.792,67.044,7.975,69.271,8.213z"/>
		<path stroke="#FFFFFF" stroke-width="3" stroke-miterlimit="10" d="M12.957,42.373c5.197,0.476,11.943,1.077,18.685,1.719c3.364,0.32,4.235,1.351,4.157,4.741
			c-0.064,2.798-1.434,4.103-4.385,4.365c-7.032,0.622-14.061,1.28-21.087,1.96c-2.118,0.203-4.739-1.643-5.215-4.102
			c-0.293-1.514-0.346-3.185-0.026-4.681C5.842,42.853,7.354,41.981,12.957,42.373z"/>
		<path stroke="#FFFFFF" stroke-width="3" stroke-miterlimit="10" d="M31.569,8.183c3.419-0.589,4.3,2.535,5.485,4.955c2.75,5.618,5.246,11.36,7.905,17.023c0.739,1.573,0.881,3-0.23,4.432
			c-1.33,1.713-3.197,2.813-5.177,2.132c-1.38-0.475-2.552-1.98-3.481-3.268c-3.893-5.396-7.681-10.87-11.46-16.346
			c-1.37-1.985-0.812-4.993,1.081-6.491C28.378,8.495,29.069,8.187,31.569,8.183z"/>
		<path stroke="#FFFFFF" stroke-width="3" stroke-miterlimit="10" d="M64.973,48.584c-0.008-3.271,0.812-4.214,3.973-4.504c7.336-0.675,14.668-1.389,22.014-1.937
			c0.955-0.07,2.158,0.53,2.93,1.19c1.98,1.698,2.59,7.205,1.163,9.362c-1.079,1.637-2.559,2.434-4.616,2.252
			c-7.222-0.639-14.451-1.188-21.679-1.787C66.256,52.952,64.979,51.379,64.973,48.584z"/>
		<path stroke="#FFFFFF" stroke-width="3" stroke-miterlimit="10" d="M31.808,88.688c-3.694-0.076-6.523-1.854-7.591-4.693c-0.542-1.441-0.393-2.755,0.473-4.001
			c4.204-6.04,8.394-12.091,12.628-18.111c1.301-1.851,3.669-2.147,5.801-0.851c2.354,1.431,3.034,3.246,2.031,5.445
			c-2.958,6.487-5.935,12.969-8.868,19.469C35.395,87.912,33.865,88.698,31.808,88.688z"/>
	</g>
</g>
</svg>
