<?xml version="1.0" encoding="utf-8"?>
<!-- Generator: Adobe Illustrator 16.0.0, SVG Export Plug-In . SVG Version: 6.00 Build 0)  -->
<!DOCTYPE svg PUBLIC "-//W3C//DTD SVG 1.1//EN" "http://www.w3.org/Graphics/SVG/1.1/DTD/svg11.dtd">
<svg version="1.1" id="Layer_1" xmlns="http://www.w3.org/2000/svg" xmlns:xlink="http://www.w3.org/1999/xlink" x="0px" y="0px"
	 width="300px" height="300px" viewBox="0 0 300 300" enable-background="new 0 0 300 300" xml:space="preserve">
<ellipse fill="#999999" stroke="#FFFFFF" stroke-width="5" stroke-miterlimit="10" cx="74.439" cy="196.587" rx="54.132" ry="13.753"/>
<ellipse fill="#CECECE" stroke="#FFFFFF" stroke-width="5" stroke-miterlimit="10" cx="216.868" cy="105.392" rx="38.447" ry="9.767"/>
<ellipse fill="#707070" stroke="#FFFFFF" stroke-width="5" stroke-miterlimit="10" cx="205.822" cy="269.653" rx="85.154" ry="21.633"/>
<g>
	<polygon stroke="#FFFFFF" stroke-width="5" stroke-miterlimit="10" points="29.755,155.414 38.523,49.38 125.968,109.99 	"/>
	<polygon stroke="#FFFFFF" stroke-width="5" stroke-miterlimit="10" points="30.505,157.003 95.346,169.737 126.718,111.579 	"/>
	<polygon stroke="#FFFFFF" stroke-width="5" stroke-miterlimit="10" points="127.531,108.805 95.698,59.461 40.086,48.193 	"/>
	<polygon stroke="#FFFFFF" stroke-width="5" stroke-miterlimit="10" points="35.949,50.668 9.31,100.769 27.18,156.704 	"/>
</g>
<g>
	<polygon stroke="#FFFFFF" stroke-width="5" stroke-miterlimit="10" points="193.495,57.637 207.393,30.362 237.626,35.15 
		242.416,65.385 215.142,79.282 	"/>
	<polygon stroke="#FFFFFF" stroke-width="5" stroke-miterlimit="10" points="238.52,35.247 247.971,25.796 259.007,47.38 
		255.321,71.877 243.308,65.481 	"/>
	<polygon stroke="#FFFFFF" stroke-width="5" stroke-miterlimit="10" points="242.737,66.057 254.645,72.123 237.525,89.29 
		213.091,93.352 215.46,79.954 	"/>
	<polygon stroke="#FFFFFF" stroke-width="5" stroke-miterlimit="10" points="214.57,79.726 212.481,92.924 190.866,81.95 
		179.448,59.967 192.927,58.078 	"/>
	<polygon stroke="#FFFFFF" stroke-width="5" stroke-miterlimit="10" points="192.798,57.531 179.601,59.624 183.358,35.672 
		200.739,18.023 206.698,30.256 	"/>
	<polygon stroke="#FFFFFF" stroke-width="5" stroke-miterlimit="10" points="207.332,29.396 201.265,17.492 225.203,13.665 
		247.359,24.739 237.565,34.188 	"/>
</g>
<g>
	<polygon stroke="#FFFFFF" stroke-width="5" stroke-miterlimit="10" points="150.022,203.325 232.145,159.815 228.761,252.689 	"/>
	<polygon stroke="#FFFFFF" stroke-width="5" stroke-miterlimit="10" points="234.401,159.948 283.95,208.25 231.018,252.821 	"/>
	<polyline stroke="#FFFFFF" stroke-width="5" stroke-miterlimit="10" points="148.921,201.351 165.975,134.286 231.041,157.841 	"/>
	<polygon stroke="#FFFFFF" stroke-width="5" stroke-miterlimit="10" points="227.709,254.367 161.103,273.13 148.971,205.002 	"/>
	<polygon stroke="#FFFFFF" stroke-width="5" stroke-miterlimit="10" points="234.53,157.691 245.927,140.541 284.331,206.621 	"/>
	<polygon stroke="#FFFFFF" stroke-width="5" stroke-miterlimit="10" points="232.642,156.955 243.778,139.006 167.54,133.593 	"/>
	<polygon stroke="#FFFFFF" stroke-width="5" stroke-miterlimit="10" points="228.599,255.539 238.456,274.224 162.026,274.322 	"/>
	<polygon stroke="#FFFFFF" stroke-width="5" stroke-miterlimit="10" points="231.08,254.549 240.869,273.275 284.329,210.398 	"/>
	<polygon stroke="#FFFFFF" stroke-width="5" stroke-miterlimit="10" points="147.38,204.023 126.267,203.336 159.628,272.104 	"/>
	<polygon stroke="#FFFFFF" stroke-width="5" stroke-miterlimit="10" points="147.195,202.022 126.081,201.311 163.917,134.901 	"/>
</g>
<text transform="matrix(0.8853 -0.465 0.465 0.8853 60.4629 124.6089)" fill="#FFFFFF" font-family="'Copperplate'" font-size="48">5</text>
<text transform="matrix(0.6991 0.715 -0.715 0.6991 204.0381 53.0723)" fill="#FFFFFF" font-family="'Copperplate'" font-size="35.0898">1</text>
<text transform="matrix(0.8325 0.554 -0.554 0.8325 173.3877 209.9277)" fill="#FFFFFF" font-family="'Copperplate'" font-size="77.3973">8</text>
</svg>
