<?xml version="1.0" encoding="utf-8"?>
<!-- Generator: Adobe Illustrator 16.0.0, SVG Export Plug-In . SVG Version: 6.00 Build 0)  -->
<!DOCTYPE svg PUBLIC "-//W3C//DTD SVG 1.1//EN" "http://www.w3.org/Graphics/SVG/1.1/DTD/svg11.dtd">
<svg version="1.1" id="Layer_1" xmlns="http://www.w3.org/2000/svg" xmlns:xlink="http://www.w3.org/1999/xlink" x="0px" y="0px"
	 width="300px" height="300px" viewBox="0 0 300 300" enable-background="new 0 0 300 300" xml:space="preserve">
<g id="JYvsMv.tif">
	<g>
		<path stroke="#FFFFFF" stroke-width="5" stroke-miterlimit="10" fill-rule="evenodd" clip-rule="evenodd" d="M121.944,2.8c17.23,0,33.282,0,49.335,0c2.231,0,4.463,0,7.956,0
			c0,11.243,0,22.022,0,32.219c11.079,4.645,20.881,8.754,31.973,13.403c6.765-7.566,14.057-15.718,20.884-23.353
			c14.679,14.655,28.15,28.108,42.424,42.36c-7.428,6.55-15.588,13.746-23.18,20.439c4.951,11.833,9.04,21.613,13.633,32.592
			c10.101,0,20.974,0,32.172,0c0,19.848,0,38.597,0,58.154c-10.987,0-21.586,0-31.913,0c-4.525,10.787-8.726,20.803-13.665,32.583
			c7.526,6.646,15.716,13.877,23.477,20.729c-14.455,14.418-27.76,27.689-41.178,41.074c-6.774-7.273-14.16-15.206-20.906-22.451
			c-12.63,5.283-22.658,9.477-33.486,14.007c0,10.285,0,20.899,0,32.026c-19.502,0-38.204,0-57.671,0c0-10.922,0-21.53,0-31.97
			c-10.737-4.485-20.774-8.679-32.167-13.438c-6.75,7.399-13.926,15.267-20.513,22.488c-14.203-14.361-27.555-27.86-42.102-42.567
			c6.897-5.868,15.202-12.932,22.679-19.291c-5.177-12.425-9.358-22.46-13.825-33.18c-10.422,0-21.034,0-32.064,0
			c0-19.485,0-38.243,0-57.875c10.806,0,21.427,0,32.07,0c4.416-10.466,8.531-20.218,13.424-31.812
			c-7.513-6.381-15.825-13.441-23.404-19.878C41.042,53.953,54.521,40.51,68.812,26.254c6.017,6.743,13.302,14.905,20.102,22.524
			c11.776-4.917,21.809-9.106,33.03-13.791C121.944,24.741,121.944,13.935,121.944,2.8z M150.674,90.815
			c-32.265-0.078-59.369,27.104-59.098,59.271c0.271,32.121,26.733,58.542,58.816,58.723c32.106,0.18,59.371-27.148,59.16-59.298
			C209.345,117.579,182.574,90.891,150.674,90.815z"/>
	</g>
</g>
</svg>
